<?xml version="1.0" encoding="utf-8"?>
<!-- Generator: Adobe Illustrator 25.4.1, SVG Export Plug-In . SVG Version: 6.00 Build 0)  -->
<svg version="1.1" id="Laag_1" xmlns="http://www.w3.org/2000/svg" xmlns:xlink="http://www.w3.org/1999/xlink" x="0px" y="0px"
	 width="315.8px" height="97.1px" viewBox="0 0 315.8 97.1" style="enable-background:new 0 0 315.8 97.1;" xml:space="preserve">
<style type="text/css">
	.st0{clip-path:url(#SVGID_00000161633226245242224500000013238832317595630236_);}
</style>
<g>
	<defs>
		<path id="SVGID_1_" d="M310.3,43c-5.7,0-8.3,3.7-8.3,3.7l-0.6-2c-0.1-0.6-0.6-1-1.2-1H299c-0.7,0-1.3,0.6-1.3,1.3V70
			c0,0.7,0.6,1.3,1.3,1.3h2.1c0.7,0,1.3-0.6,1.3-1.3V51.6c0,0,2.3-3.9,7.5-3.9c1,0,2.1,0.3,2.7,0.6c0.7,0.3,1.3,0.3,1.7-0.6l0.8-2.3
			C315.8,43.4,312.4,43,310.3,43L310.3,43z M287.8,57.5c0.1-0.5,0.1-1.4,0.1-1.9c0-7.2-5.2-12.6-12.5-12.6
			c-8.3,0-13.5,6.7-13.5,14.5c0,7.9,5.2,14.5,13.5,14.5c4.8,0,8.5-1.9,10.1-3.2c1-0.8,0.8-1.2,0.3-1.8c-0.4-0.6-0.8-1-1.2-1.6
			c-0.6-0.8-1-0.4-1.9,0.1c-1.6,1-3.9,2.1-6.8,2.1c-4.9,0-9-4.3-9.2-9h19.8C287.2,58.7,287.8,58.2,287.8,57.5L287.8,57.5z
			 M283.2,54.8h-16.4c0.5-4.3,4.1-7.6,8.7-7.6C279.7,47.2,283,50.8,283.2,54.8L283.2,54.8z M255.3,67.9l-1-1.7
			c-0.3-0.6-0.6-1-1.7-0.4c-0.9,0.5-3.3,1.5-5,1.5c-1.6,0-2.3-0.6-2.3-3.3V47.8h8c0.8,0,1.3-0.6,1.3-1.3V45c0-0.8-0.5-1.3-1.3-1.3
			h-8v-7.8c0-0.7-0.6-1.3-1.2-1.3l-2.2,0.1c-0.7,0-1.3,0.6-1.3,1.3v7.6h-3.5c-0.8,0-1.3,0.6-1.3,1.3v1.5c0,0.7,0.6,1.3,1.3,1.3h3.5
			v16.5c0,4.3,0.8,7.6,6.3,7.6c3.2,0,7-1.7,7.9-2.3C255.6,69.1,255.8,68.7,255.3,67.9L255.3,67.9z M227.3,70V54.7
			c0-8.1-1.7-11.6-8.8-11.6c-5.2,0-9.2,1.6-9.6,1.8c-0.6,0.3-1,0.7-0.8,1.5l0.6,1.7c0.2,0.6,0.6,1,1.3,0.7c1.2-0.5,4.5-1.5,8.3-1.5
			c3.9,0,4.5,2.3,4.5,7.4c0,0-2.9-0.9-5.9-0.9c-7.1,0-11,3.9-11,9.2c0,5.5,3.7,9,8.5,9c4.3,0,7.1-2.1,8.5-3.6l0.5,1.9
			c0.2,0.6,0.4,1,1.2,1h1.3C226.7,71.3,227.3,70.7,227.3,70L227.3,70z M222.8,64c-1.2,1.7-4.1,3.9-7.6,3.9c-3,0-4.8-2.1-4.8-4.9
			c0-3.6,2.8-5.5,6.6-5.5c3,0,5,0.6,5.8,1.1V64L222.8,64z M198.2,57.5c0.1-0.5,0.1-1.4,0.1-1.9c0-7.2-5.2-12.6-12.5-12.6
			c-8.3,0-13.5,6.7-13.5,14.5c0,7.9,5.2,14.5,13.5,14.5c4.8,0,8.5-1.9,10.1-3.2c1-0.8,0.8-1.2,0.3-1.8c-0.4-0.6-0.8-1-1.2-1.6
			c-0.6-0.8-1-0.4-1.9,0.1c-1.6,1-3.9,2.1-6.8,2.1c-4.9,0-9-4.3-9.2-9H197C197.6,58.7,198.2,58.2,198.2,57.5L198.2,57.5z
			 M193.6,54.8h-16.4c0.5-4.3,4.1-7.6,8.7-7.6C190.1,47.2,193.4,50.8,193.6,54.8L193.6,54.8z M168.4,45.3c0.7-1.9-2.8-2.3-4.8-2.3
			c-5.7,0-8.3,3.7-8.3,3.7l-0.6-2c-0.1-0.6-0.6-1-1.2-1h-1.3c-0.7,0-1.3,0.6-1.3,1.3V70c0,0.7,0.6,1.3,1.3,1.3h2.1
			c0.7,0,1.3-0.6,1.3-1.3V51.6c0,0,2.3-3.9,7.5-3.9c1,0,2.1,0.3,2.7,0.6c0.7,0.3,1.3,0.3,1.7-0.6L168.4,45.3L168.4,45.3z
			 M116.7,70.8c0.1-1.3,0.7-2.3,1.5-3c0.1,0.1,0.2,0.2,0.3,0.3c2.3,1.8,5.3,2.8,8.4,2.8c7.7,0,14-6.3,14-14c0-3.8-1.5-7.2-4-9.7
			l1.9-0.4c0.5-0.1,0.7-0.7,0.7-1.1v-1.1c0-0.7-0.5-1.2-1.2-1.2h-8.2c-1-0.2-2.1-0.4-3.2-0.4c-7.7,0-14,6.3-14,14
			c0,2.8,0.8,5.4,2.2,7.6c0.1,0.1,0.1,0.2,0.2,0.3c-1.4,1.3-3,3.4-3.2,6.4c-0.3,4,2.4,6.4,4.8,7.2l0.1,0l0,0.5l-0.2,0.1
			c-3.6,1.8-4.4,4.5-4.6,6.4c-0.2,2.6,0.9,5.1,2.9,7c2.4,2.3,6,3.6,10.5,3.9c9.4,0.6,15.5-5.2,15.9-10.9c0.4-5.8-3.5-9.6-10.3-10
			L120.8,75C117.8,74.8,116.6,72.7,116.7,70.8L116.7,70.8z M117.3,57c0-5.3,4.3-9.7,9.7-9.7c5.3,0,9.7,4.3,9.7,9.7
			c0,5.3-4.3,9.7-9.7,9.7C121.6,66.6,117.3,62.3,117.3,57L117.3,57z M117.4,85.1c0.3-4.5,5.4-5.6,5.5-5.6l0,0l0,0l8.2,0.5
			c5.7,0.4,5.6,4.9,5.5,5.4c-0.1,2.1-1.4,3.9-3.6,5.1c-1.7,1-4,1.5-6.2,1.5c-0.3,0-0.6,0-0.9,0C120.9,91.7,117.2,88.7,117.4,85.1
			L117.4,85.1z M124.6,25.5c0-7.2-5.9-13.1-13.1-13.1c-7.2,0-13.1,5.9-13.1,13.1c0,7.2,5.9,13.1,13.1,13.1
			C118.7,38.6,124.6,32.7,124.6,25.5L124.6,25.5z M120.4,25.5c0,4.9-4,8.9-8.9,8.9c-4.9,0-8.9-4-8.9-8.9c0-4.9,4-8.9,8.9-8.9
			C116.4,16.6,120.4,20.6,120.4,25.5L120.4,25.5z M91.2,11.8c0-6.1-5-11.1-11.1-11.1C74,0.7,69,5.7,69,11.8s5,11.1,11.1,11.1
			C86.3,22.9,91.2,17.9,91.2,11.8L91.2,11.8z M87,11.8c0,3.8-3.1,6.9-6.9,6.9c-3.8,0-6.9-3.1-6.9-6.9c0-3.8,3.1-6.9,6.9-6.9
			C83.9,4.9,87,8,87,11.8L87,11.8z M59,64V47.8h8c0.8,0,1.3-0.6,1.3-1.3V45c0-0.8-0.6-1.3-1.3-1.3h-8v-7.8c0-0.7-0.6-1.3-1.2-1.3
			l-2.2,0.1c-0.7,0-1.3,0.6-1.3,1.3v7.6h-3.5c-0.8,0-1.3,0.6-1.3,1.3v1.5c0,0.7,0.6,1.3,1.3,1.3h3.5v16.5c0,4.3,0.8,7.6,6.3,7.6
			c3.2,0,7-1.7,7.9-2.3c0.8-0.5,1-0.9,0.5-1.7l-1-1.7c-0.3-0.6-0.6-1-1.7-0.4c-0.9,0.5-3.3,1.5-5,1.5C59.6,67.3,59,66.7,59,64L59,64
			z M58.1,8.8c0-4.8-3.9-8.8-8.8-8.8c-4.8,0-8.8,3.9-8.8,8.8c0,4.8,3.9,8.8,8.8,8.8C54.1,17.5,58.1,13.6,58.1,8.8L58.1,8.8z
			 M54.5,8.8c0,2.9-2.3,5.2-5.2,5.2c-2.9,0-5.2-2.3-5.2-5.2s2.3-5.2,5.2-5.2C52.2,3.5,54.5,5.9,54.5,8.8L54.5,8.8z M42.2,70V55.4
			c0-7.2-2.7-12.4-10.7-12.4c-5.7,0-9.6,3.7-9.6,3.7l-0.6-2.1c-0.1-0.6-0.5-0.8-1.1-0.8h-1.3c-0.7,0-1.3,0.6-1.3,1.3V70
			c0,0.7,0.6,1.3,1.3,1.3H21c0.7,0,1.3-0.6,1.3-1.3V51.6c0,0,3.7-3.9,8.9-3.9c3.9,0,6.2,2.5,6.2,7.8V70c0,0.7,0.6,1.3,1.3,1.3h2.2
			C41.6,71.3,42.2,70.7,42.2,70L42.2,70z M29.3,15.5c0-3.7-3-6.8-6.8-6.8c-3.7,0-6.8,3-6.8,6.8c0,3.7,3,6.8,6.8,6.8
			C26.3,22.3,29.3,19.2,29.3,15.5L29.3,15.5z M25.8,15.5c0,1.8-1.5,3.2-3.2,3.2s-3.2-1.5-3.2-3.2c0-1.8,1.4-3.2,3.2-3.2
			S25.8,13.7,25.8,15.5L25.8,15.5z M6.5,27.7c0-1.9-1.4-3.3-3.3-3.3c-1.8,0-3.2,1.4-3.2,3.3C0,29.5,1.4,31,3.2,31
			C5.1,31,6.5,29.5,6.5,27.7L6.5,27.7z M0.9,45V70c0,0.7,0.6,1.3,1.3,1.3h2.1c0.7,0,1.3-0.6,1.3-1.3V45c0-0.7-0.6-1.3-1.3-1.3H2.2
			C1.5,43.7,0.9,44.3,0.9,45L0.9,45z M77.7,57.5c0,7.9,5.2,14.5,13.5,14.5c4.8,0,8.5-1.9,10.1-3.2c1-0.8,0.8-1.2,0.3-1.8
			c-0.4-0.6-0.8-1-1.2-1.6c-0.6-0.8-1-0.4-1.9,0.1c-1.6,1-3.9,2.1-6.8,2.1c-4.9,0-9-4.3-9.2-9h19.8c0.6,0,1.2-0.5,1.2-1.2
			c0.1-0.5,0.1-1.4,0.1-1.9c0-7.2-5.2-12.6-12.5-12.6C82.9,43,77.7,49.7,77.7,57.5L77.7,57.5z M82.5,54.8c0.5-4.3,4.1-7.6,8.7-7.6
			c4.2,0,7.5,3.6,7.7,7.6H82.5L82.5,54.8z"/>
	</defs>
	
		<linearGradient id="SVGID_00000173843713911457655090000005175594135349597845_" gradientUnits="userSpaceOnUse" x1="0" y1="48.2576" x2="315.2048" y2="48.2576">
		<stop  offset="0" style="stop-color:#82368C"/>
		<stop  offset="0.1717" style="stop-color:#754092"/>
		<stop  offset="0.7215" style="stop-color:#4259A5"/>
		<stop  offset="1" style="stop-color:#1961AC"/>
	</linearGradient>
	<use xlink:href="#SVGID_1_"  style="overflow:visible;fill:url(#SVGID_00000173843713911457655090000005175594135349597845_);"/>
	<clipPath id="SVGID_00000183236047675086606630000014849433933021050497_">
		<use xlink:href="#SVGID_1_"  style="overflow:visible;"/>
	</clipPath>
	<g style="clip-path:url(#SVGID_00000183236047675086606630000014849433933021050497_);">
		<defs>
			<rect id="SVGID_00000164484166351902610240000016369503264110791602_" width="315.8" height="97.1"/>
		</defs>
		
			<linearGradient id="SVGID_00000178183134227088699170000016142450598003561631_" gradientUnits="userSpaceOnUse" x1="0" y1="48.533" x2="315.805" y2="48.533">
			<stop  offset="0" style="stop-color:#82368C"/>
			<stop  offset="0.1717" style="stop-color:#754092"/>
			<stop  offset="0.7215" style="stop-color:#4259A5"/>
			<stop  offset="1" style="stop-color:#1961AC"/>
		</linearGradient>
		
			<use xlink:href="#SVGID_00000164484166351902610240000016369503264110791602_"  style="overflow:visible;fill:url(#SVGID_00000178183134227088699170000016142450598003561631_);"/>
		<clipPath id="SVGID_00000180346187088043373220000013937077411197484421_">
			<use xlink:href="#SVGID_00000164484166351902610240000016369503264110791602_"  style="overflow:visible;"/>
		</clipPath>
	</g>
</g>
</svg>
